<svg width="24px" height="24px" viewBox="0 0 24 24" fill="none" xmlns="http://www.w3.org/2000/svg">
<path opacity="0.4" fill-rule="evenodd" clip-rule="evenodd" d="M5.46436 10.9319C5.46436 10.5177 5.12857 10.1819 4.71436 10.1819C4.30014 10.1819 3.96436 10.5177 3.96436 10.9319C3.96436 15.1829 7.21628 18.6734 11.3685 19.0517V21.1468C11.3685 21.561 11.7043 21.8968 12.1185 21.8968C12.5328 21.8968 12.8685 21.561 12.8685 21.1468V19.0516C17.0205 18.6729 20.272 15.1826 20.272 10.9319C20.272 10.5177 19.9362 10.1819 19.522 10.1819C19.1078 10.1819 18.772 10.5177 18.772 10.9319C18.772 14.6072 15.7935 17.5857 12.1182 17.5857C8.44285 17.5857 5.46436 14.6072 5.46436 10.9319Z" fill="#130F26"/>
<path fill-rule="evenodd" clip-rule="evenodd" d="M12.2447 14.5843H11.9923C9.97132 14.5843 8.33228 12.9462 8.33228 10.9243V6.37387C8.33228 4.35291 9.97132 2.71387 11.9923 2.71387H12.2447C14.2656 2.71387 15.9047 4.35291 15.9047 6.37387V10.9243C15.9047 12.9462 14.2656 14.5843 12.2447 14.5843Z" stroke="#130F26" stroke-width="1.5" stroke-linecap="round" stroke-linejoin="round"/>
</svg>
